<svg width="800" height="600" xmlns="http://www.w3.org/2000/svg">

 <g>
  <title>Layer 1</title>
  <text font-weight="bold" font-style="italic" xml:space="preserve" text-anchor="start" font-family="'Brygada 1918'" font-size="150" id="svg_7" y="359.65838" x="322.99089" stroke-width="0" stroke="#000" fill="#b20707">Shivi</text>
  <path stroke="#000" id="svg_9" d="m712.082,237.51064c0.0054,0.00357 0.01683,-0.0032 0.02238,-0.00403c-0.00625,-0.00813 0.01729,-0.04771 0.00917,-0.06208c-0.0025,-0.0325 -0.06578,-0.10586 -0.07375,-0.11438c0.00304,-0.00571 0.03711,-0.0004 0.03609,0.00042c-0.01422,0.01145 0.04798,0.07718 0.05516,0.1152c0.01323,-0.00073 0.03062,-0.00569 0.03833,0.0025c0.0072,-0.00787 0.06279,-0.06802 0.06583,-0.12c0.00044,-0.00745 0.03061,-0.00273 0.02493,0.00181c-0.0091,0.03236 -0.07325,0.12322 -0.07826,0.12653c0.00583,0.02833 0.00347,0.03028 0.04073,0.05231c0.01677,-0.03937 0.05249,-0.07279 0.08522,-0.10606c0.03695,-0.03735 0.06175,-0.07313 0.10245,-0.11201c0.05358,-0.04939 0.12201,-0.09446 0.18468,-0.12136c0.0436,-0.01871 0.11664,-0.03476 0.12784,-0.03581c0.02075,-0.00201 0.03951,-0.00166 0.06409,0.002c0.03628,0.00539 0.07171,0.0084 0.1098,0.02628c0.03582,0.02295 0.02344,0.05171 0.01676,0.07865c-0.05517,0.06084 -0.11167,0.1337 -0.12946,0.20824c-0.00598,0.0276 -0.01674,0.07516 -0.04213,0.10504c-0.04082,0.04595 -0.09077,0.04426 -0.13771,0.05048c0.0286,0.00819 0.05962,0.03493 0.08744,0.06179c0.04341,0.04226 0.06456,0.0856 0.05335,0.13278c-0.00239,0.0099 -0.04378,0.08496 -0.06402,0.10851c-0.07684,0.08968 -0.18145,0.1505 -0.26576,0.14063c-0.03036,-0.00355 -0.11411,-0.0673 -0.12917,-0.08612c-0.03738,-0.0467 -0.06808,-0.10302 -0.06934,-0.1522c-0.00465,-0.00464 -0.01033,-0.00499 -0.00782,-0.0112c-0.00466,0.01422 -0.01944,0.06054 -0.04133,0.08982c-0.03164,0.04233 -0.06061,-0.02095 -0.07234,-0.07227c-0.00402,-0.01759 -0.00107,-0.02064 -0.00576,-0.03116c-0.02217,0.00841 -0.0105,0.0328 -0.0192,0.0525c-0.00738,0.01716 -0.04041,0.06956 -0.04953,0.0815c-0.02916,0.03819 -0.09463,0.09597 -0.14211,0.10984c-0.04407,0.01287 -0.08142,0.01106 -0.11684,-0.0071c-0.04568,-0.02343 -0.11006,-0.07785 -0.14967,-0.12209c-0.05014,-0.05475 -0.09396,-0.137 -0.05225,-0.19494c0.02662,-0.03615 0.07673,-0.09003 0.1257,-0.10326c-0.03457,-0.00423 -0.11105,-0.02702 -0.13949,-0.09029c-0.00913,-0.02006 -0.01252,-0.05126 -0.01484,-0.07357c-0.00378,-0.03685 -0.02059,-0.07918 -0.03455,-0.11546c-0.01122,-0.03317 -0.03105,-0.07564 -0.0518,-0.11193c-0.02175,-0.03808 -0.03958,-0.10105 -0.00173,-0.13206c0.01322,-0.01083 0.05416,-0.02347 0.06271,-0.02437c0.02991,-0.00319 0.07065,0.01149 0.1009,0.0203c0.01982,0.00582 0.10676,0.03689 0.13081,0.05399c0.15852,0.11276 0.27124,0.25322 0.34447,0.38263z" stroke-width="0" fill="#000000"/>
  <path id="svg_10" d="m690.21145,204.60174c0.22804,0.17349 0.71063,-0.15509 0.94509,-0.19569c-0.26389,-0.39434 0.73007,-2.31548 0.38702,-3.01315c-0.10555,-1.57736 -2.77736,-5.1379 -3.11385,-5.55107c0.12836,-0.27708 1.56681,-0.01925 1.52387,0.0205c-0.60027,0.55584 2.0256,3.7458 2.32886,5.59123c0.55878,-0.03555 1.29277,-0.2762 1.61851,0.12134c0.30418,-0.38209 2.65126,-3.30145 2.77958,-5.82408c0.01838,-0.3615 1.29225,-0.13271 1.05262,0.08763c-0.38411,1.57061 -3.09282,5.98035 -3.30443,6.14091c0.24628,1.37511 0.14657,1.46936 1.71964,2.53861c0.70796,-1.9109 2.21639,-3.53298 3.59797,-5.14741c1.56002,-1.8127 2.60699,-3.54924 4.32546,-5.43626c2.26222,-2.39707 5.15132,-4.5843 7.79739,-5.88996c1.84076,-0.90829 4.92493,-1.68694 5.39773,-1.73791c0.87589,-0.09774 1.66797,-0.08039 2.70618,0.09693c1.5319,0.26162 3.02769,0.40773 4.63604,1.27557c1.51232,1.1138 0.98953,2.50973 0.70755,3.81729c-2.32922,2.95263 -4.71485,6.48882 -5.46618,10.10651c-0.25262,1.33956 -0.70682,3.64789 -1.77878,5.09786c-1.72336,2.23035 -3.83251,2.14787 -5.81418,2.45021c1.20748,0.39742 2.51711,1.69508 3.69203,2.99906c1.83282,2.05102 2.7259,4.15436 2.25259,6.44422c-0.10076,0.48029 -1.84832,4.12325 -2.70307,5.26632c-3.24427,4.35259 -7.66108,7.30445 -11.22094,6.82537c-1.28196,-0.17251 -4.81802,-3.26655 -5.45378,-4.17952c-1.57822,-2.26639 -2.87455,-5.00009 -2.92784,-7.38679c-0.19618,-0.22532 -0.43611,-0.24197 -0.33032,-0.54341c-0.19658,0.69027 -0.82083,2.93822 -1.745,4.35934c-1.33608,2.05454 -2.55912,-1.01669 -3.05417,-3.50733c-0.16971,-0.85379 -0.04515,-1.0016 -0.24309,-1.51212c-0.93595,0.40822 -0.44314,1.59186 -0.81045,2.54803c-0.3114,0.83265 -1.706,3.37587 -2.09113,3.95566c-1.23108,1.85332 -3.99537,4.65783 -6.00012,5.33077c-1.86065,0.62459 -3.43763,0.53696 -4.93301,-0.34468c-1.9288,-1.13715 -4.64703,-3.77815 -6.3193,-5.92556c-2.117,-2.65709 -3.9673,-6.64925 -2.20625,-9.46128c1.12402,-1.75455 3.23981,-4.36929 5.30735,-5.01181c-1.45948,-0.20547 -4.68855,-1.31117 -5.88942,-4.38232c-0.38544,-0.97372 -0.52843,-2.48766 -0.62647,-3.57086c-0.15951,-1.78833 -0.86934,-3.84297 -1.45859,-5.60385c-0.47368,-1.60988 -1.3109,-3.67087 -2.18708,-5.43217c-0.91824,-1.84829 -1.67105,-4.90452 -0.07304,-6.40949c0.55821,-0.52579 2.28666,-1.13904 2.64789,-1.18277c1.2627,-0.15499 2.98302,0.5578 4.26008,0.98544c0.83667,0.28249 4.50773,1.79017 5.52298,2.62032c6.69296,5.47273 11.45214,12.28976 14.54406,18.57037z" stroke-width="0" stroke="#000" fill="#706464"/>
  <path id="svg_11" d="m685.54901,204.34439c0.0054,0.00357 0.01683,-0.0032 0.02238,-0.00403c-0.00625,-0.00813 0.01729,-0.04771 0.00917,-0.06208c-0.0025,-0.0325 -0.06578,-0.10586 -0.07375,-0.11438c0.00304,-0.00571 0.03711,-0.0004 0.03609,0.00042c-0.01422,0.01145 0.04798,0.07718 0.05516,0.1152c0.01323,-0.00073 0.03062,-0.00569 0.03833,0.0025c0.0072,-0.00787 0.06279,-0.06802 0.06583,-0.12c0.00044,-0.00745 0.03061,-0.00273 0.02493,0.00181c-0.0091,0.03236 -0.07325,0.12322 -0.07826,0.12653c0.00583,0.02833 0.00347,0.03028 0.04073,0.05231c0.01677,-0.03937 0.05249,-0.07279 0.08522,-0.10606c0.03695,-0.03735 0.06175,-0.07313 0.10245,-0.11201c0.05358,-0.04939 0.12201,-0.09446 0.18468,-0.12136c0.0436,-0.01871 0.11664,-0.03476 0.12784,-0.03581c0.02075,-0.00201 0.03951,-0.00166 0.06409,0.002c0.03628,0.00539 0.07171,0.0084 0.1098,0.02628c0.03582,0.02295 0.02344,0.05171 0.01676,0.07865c-0.05517,0.06084 -0.11167,0.1337 -0.12946,0.20824c-0.00598,0.0276 -0.01674,0.07516 -0.04213,0.10504c-0.04082,0.04595 -0.09077,0.04426 -0.13771,0.05048c0.0286,0.00819 0.05962,0.03493 0.08744,0.06179c0.04341,0.04226 0.06456,0.0856 0.05335,0.13278c-0.00239,0.0099 -0.04378,0.08496 -0.06402,0.10851c-0.07684,0.08968 -0.18145,0.1505 -0.26576,0.14063c-0.03036,-0.00355 -0.11411,-0.0673 -0.12917,-0.08612c-0.03738,-0.0467 -0.06808,-0.10302 -0.06934,-0.1522c-0.00465,-0.00464 -0.01033,-0.00499 -0.00782,-0.0112c-0.00466,0.01422 -0.01944,0.06054 -0.04133,0.08982c-0.03164,0.04233 -0.06061,-0.02095 -0.07234,-0.07227c-0.00402,-0.01759 -0.00107,-0.02064 -0.00576,-0.03116c-0.02217,0.00841 -0.0105,0.0328 -0.0192,0.0525c-0.00738,0.01716 -0.04041,0.06956 -0.04953,0.0815c-0.02916,0.03819 -0.09463,0.09597 -0.14211,0.10984c-0.04407,0.01287 -0.08142,0.01106 -0.11684,-0.0071c-0.04568,-0.02343 -0.11006,-0.07785 -0.14967,-0.12209c-0.05014,-0.05475 -0.09396,-0.137 -0.05225,-0.19494c0.02662,-0.03615 0.07673,-0.09003 0.1257,-0.10326c-0.03457,-0.00423 -0.11105,-0.02702 -0.13949,-0.09029c-0.00913,-0.02006 -0.01252,-0.05126 -0.01484,-0.07357c-0.00378,-0.03685 -0.02059,-0.07918 -0.03455,-0.11546c-0.01122,-0.03317 -0.03105,-0.07564 -0.0518,-0.11193c-0.02175,-0.03808 -0.03958,-0.10105 -0.00173,-0.13206c0.01322,-0.01083 0.05416,-0.02347 0.06271,-0.02437c0.02991,-0.00319 0.07065,0.01149 0.1009,0.0203c0.01982,0.00582 0.10676,0.03689 0.13081,0.05399c0.15852,0.11276 0.27124,0.25322 0.34447,0.38263z" stroke-width="0" stroke="#000" fill="#000000"/>
  <path stroke="#000" id="svg_12" d="m876.25494,224.24415c0.0054,0.00357 0.01683,-0.0032 0.02238,-0.00403c-0.00625,-0.00813 0.01729,-0.04771 0.00917,-0.06208c-0.0025,-0.0325 -0.06578,-0.10586 -0.07375,-0.11438c0.00304,-0.00571 0.03711,-0.0004 0.03609,0.00042c-0.01422,0.01145 0.04798,0.07718 0.05516,0.1152c0.01323,-0.00073 0.03062,-0.00569 0.03833,0.0025c0.0072,-0.00787 0.06279,-0.06802 0.06583,-0.12c0.00044,-0.00745 0.03061,-0.00273 0.02493,0.00181c-0.0091,0.03236 -0.07325,0.12322 -0.07826,0.12653c0.00583,0.02833 0.00347,0.03028 0.04073,0.05231c0.01677,-0.03937 0.05249,-0.07279 0.08522,-0.10606c0.03695,-0.03735 0.06175,-0.07313 0.10245,-0.11201c0.05358,-0.04939 0.12201,-0.09446 0.18468,-0.12136c0.0436,-0.01871 0.11664,-0.03476 0.12784,-0.03581c0.02075,-0.00201 0.03951,-0.00166 0.06409,0.002c0.03628,0.00539 0.07171,0.0084 0.1098,0.02628c0.03582,0.02295 0.02344,0.05171 0.01676,0.07865c-0.05517,0.06084 -0.11167,0.1337 -0.12946,0.20824c-0.00598,0.0276 -0.01674,0.07516 -0.04213,0.10504c-0.04082,0.04595 -0.09077,0.04426 -0.13771,0.05048c0.0286,0.00819 0.05962,0.03493 0.08744,0.06179c0.04341,0.04226 0.06456,0.0856 0.05335,0.13278c-0.00239,0.0099 -0.04378,0.08496 -0.06402,0.10851c-0.07684,0.08968 -0.18145,0.1505 -0.26576,0.14063c-0.03036,-0.00355 -0.11411,-0.0673 -0.12917,-0.08612c-0.03738,-0.0467 -0.06808,-0.10302 -0.06934,-0.1522c-0.00465,-0.00464 -0.01033,-0.00499 -0.00782,-0.0112c-0.00466,0.01422 -0.01944,0.06054 -0.04133,0.08982c-0.03164,0.04233 -0.06061,-0.02095 -0.07234,-0.07227c-0.00402,-0.01759 -0.00107,-0.02064 -0.00576,-0.03116c-0.02217,0.00841 -0.0105,0.0328 -0.0192,0.0525c-0.00738,0.01716 -0.04041,0.06956 -0.04953,0.0815c-0.02916,0.03819 -0.09463,0.09597 -0.14211,0.10984c-0.04407,0.01287 -0.08142,0.01106 -0.11684,-0.0071c-0.04568,-0.02343 -0.11006,-0.07785 -0.14967,-0.12209c-0.05014,-0.05475 -0.09396,-0.137 -0.05225,-0.19494c0.02662,-0.03615 0.07673,-0.09003 0.1257,-0.10326c-0.03457,-0.00423 -0.11105,-0.02702 -0.13949,-0.09029c-0.00913,-0.02006 -0.01252,-0.05126 -0.01484,-0.07357c-0.00378,-0.03685 -0.02059,-0.07918 -0.03455,-0.11546c-0.01122,-0.03317 -0.03105,-0.07564 -0.0518,-0.11193c-0.02175,-0.03808 -0.03958,-0.10105 -0.00173,-0.13206c0.01322,-0.01083 0.05416,-0.02347 0.06271,-0.02437c0.02991,-0.00319 0.07065,0.01149 0.1009,0.0203c0.01982,0.00582 0.10676,0.03689 0.13081,0.05399c0.15852,0.11276 0.27124,0.25322 0.34447,0.38263z" stroke-width="0" fill="#000000"/>
  <rect transform="rotate(-0.0340749 399.646 302.149)" stroke="#000" id="svg_16" height="598.32283" width="789.98902" y="2.98778" x="4.65115" stroke-width="0" fill="#070707"/>
  <text font-weight="bold" font-style="italic" xml:space="preserve" text-anchor="start" font-family="'Brygada 1918'" font-size="150" id="svg_19" y="337.99199" x="212.99227" stroke-width="0" stroke="#000" fill="#eadcdc">Shivi</text>
  <path stroke="#000" id="svg_21" d="m621.23627,193.30173c0.27005,0.21536 0.84154,-0.19253 1.11918,-0.24292c-0.3125,-0.48952 0.86456,-2.87439 0.45832,-3.74047c-0.125,-1.95809 -3.28898,-6.37808 -3.68745,-6.89098c0.152,-0.34396 1.85542,-0.02389 1.80458,0.02546c-0.71084,0.69 2.39874,4.64996 2.75786,6.94084c0.66172,-0.04413 1.5309,-0.34288 1.91665,0.15062c0.36022,-0.47431 3.13966,-4.09835 3.29161,-7.22988c0.02177,-0.44876 1.5303,-0.16475 1.24653,0.10878c-0.45487,1.94972 -3.66255,7.42389 -3.91315,7.62319c0.29165,1.70704 0.17357,1.82404 2.03642,3.15139c0.83836,-2.37216 2.62466,-4.38577 4.26074,-6.38989c1.8474,-2.25024 3.08723,-4.40595 5.12226,-6.74846c2.67894,-2.97567 6.10024,-5.69085 9.23375,-7.31167c2.17985,-1.12753 5.83215,-2.09414 6.39204,-2.1574c1.03724,-0.12134 1.97522,-0.0998 3.20468,0.12032c1.8141,0.32477 3.58543,0.50615 5.49005,1.58347c1.7909,1.38266 1.17181,3.11554 0.83789,4.73871c-2.75829,3.66534 -5.58337,8.05509 -6.47311,12.54602c-0.29915,1.6629 -0.83701,4.52841 -2.10645,6.32838c-2.04082,2.76871 -4.53849,2.66632 -6.88521,3.04164c1.42991,0.49335 2.98078,2.10423 4.37214,3.72297c2.17045,2.54609 3.22803,5.15714 2.66754,7.99972c-0.11932,0.59622 -2.1888,5.11852 -3.20101,6.5375c-3.8419,5.40322 -9.07233,9.0676 -13.28795,8.47288c-1.5181,-0.21416 -5.70555,-4.05503 -6.45841,-5.18838c-1.86895,-2.81345 -3.40408,-6.20701 -3.46718,-9.16981c-0.23232,-0.27971 -0.51644,-0.30037 -0.39117,-0.67458c-0.2328,0.85689 -0.97204,3.64745 -2.06645,5.4116c-1.5822,2.55046 -3.03053,-1.2621 -3.61678,-4.35393c-0.20097,-1.05987 -0.05347,-1.24336 -0.28787,-1.87712c-1.10836,0.50675 -0.52477,1.97611 -0.95974,3.16307c-0.36877,1.03363 -2.02027,4.19074 -2.47634,4.91048c-1.45786,2.30067 -4.73136,5.78213 -7.1054,6.61751c-2.2034,0.77534 -4.07087,0.66657 -5.84172,-0.42789c-2.28409,-1.41163 -5.50305,-4.69012 -7.48337,-7.35587c-2.50697,-3.29845 -4.69811,-8.25424 -2.61266,-11.74504c1.33108,-2.17806 3.83662,-5.42395 6.28502,-6.22156c-1.72833,-0.25506 -5.55222,-1.62766 -6.97431,-5.44013c-0.45644,-1.20875 -0.62577,-3.08812 -0.74186,-4.43279c-0.1889,-2.22 -1.02949,-4.77058 -1.72728,-6.9565c-0.56094,-1.99846 -1.55238,-4.55694 -2.58996,-6.74337c-1.08739,-2.29443 -1.97887,-6.08838 -0.0865,-7.95661c0.66104,-0.65271 2.70789,-1.41398 3.13566,-1.46827c1.4953,-0.19241 3.53253,0.69244 5.04483,1.2233c0.99079,0.35068 5.3381,2.22229 6.54036,3.25282c7.92587,6.79374 13.56174,15.25626 17.22322,23.05288z" stroke-width="0" fill="#ed5aa1"/>
 </g>
</svg>